<svg width="61" height="60" viewBox="0 0 61 60" fill="none" xmlns="http://www.w3.org/2000/svg">
<path d="M47.7936 22.4885H44.226L45.3009 10.0742C45.3029 10.0517 45.3032 10.0296 45.3033 10.0074C45.3033 10.0055 45.3036 10.0037 45.3036 10.0019C45.3036 10.0015 45.3036 10.0013 45.3036 10.001C45.3036 9.66308 45.1009 9.36527 44.8031 9.23579C44.8005 9.23468 44.7981 9.23335 44.7955 9.23223C44.7771 9.22444 44.7579 9.21776 44.7387 9.2113C44.7315 9.20896 44.7246 9.20607 44.7174 9.20384C44.7017 9.19906 44.6855 9.19527 44.6695 9.19137C44.6582 9.1887 44.6473 9.18547 44.6359 9.18325C44.6219 9.18046 44.6073 9.17868 44.5929 9.17657C44.5794 9.17456 44.5661 9.17223 44.5525 9.171C44.5502 9.17078 44.5481 9.17033 44.5457 9.17011C44.5311 9.16877 44.5168 9.169 44.5023 9.16844C44.4925 9.16811 44.483 9.16699 44.4733 9.16699H44.4628C44.462 9.16699 44.4611 9.16699 44.4603 9.16699H27.4856C27.0274 9.16699 26.6555 9.54106 26.6555 10.002C26.6555 10.4618 27.0274 10.8369 27.4856 10.8369H43.5685L41.9165 29.9161C41.9163 29.9176 41.9163 29.919 41.916 29.9204L41.4992 34.7345H12.6557L13.1381 29.7248H18.6301C19.0886 29.7248 19.4601 29.351 19.4601 28.8899C19.4601 28.4287 19.0886 28.0549 18.6301 28.0549H13.299L14.3177 17.4791H23.0585C23.517 17.4791 23.8886 17.1053 23.8886 16.6441C23.8886 16.183 23.517 15.8092 23.0585 15.8092H14.4786L14.9577 10.8369H24.1653C24.6224 10.8369 24.9953 10.4618 24.9953 10.002C24.9953 9.54106 24.6224 9.16699 24.1653 9.16699H14.2043C14.2038 9.16699 14.2035 9.1671 14.2031 9.1671C13.8131 9.16699 13.4749 9.44309 13.3931 9.82584C13.3926 9.82863 13.3916 9.8313 13.391 9.83408C13.3868 9.8549 13.384 9.87616 13.3813 9.89754C13.3805 9.90433 13.3791 9.91079 13.3784 9.91758C13.3783 9.91891 13.378 9.92014 13.3779 9.92147L12.8107 15.8092H2.74805C2.28951 15.8092 1.91797 16.183 1.91797 16.6441C1.91797 17.1053 2.28951 17.4791 2.74805 17.4791H12.6498L11.6311 28.0549H8.66952C8.21098 28.0549 7.83944 28.4287 7.83944 28.8899C7.83944 29.351 8.21098 29.7248 8.66952 29.7248H11.4703L10.9156 35.4829C10.9155 35.4838 10.9155 35.4847 10.9154 35.4855L10.0577 44.3895C10.0576 44.3905 10.0575 44.3917 10.0574 44.3926L10.0571 44.3958C10.056 44.4074 10.0561 44.4187 10.0554 44.4303C10.0546 44.4457 10.0531 44.4607 10.0531 44.4763C10.0531 44.4769 10.0532 44.4776 10.0532 44.4784C10.0532 44.4999 10.0548 44.521 10.0563 44.5422C10.057 44.549 10.0568 44.5559 10.0575 44.5626C10.0597 44.5842 10.0634 44.6054 10.0673 44.6266C10.0684 44.6328 10.0689 44.6391 10.0701 44.6453C10.0734 44.6613 10.0779 44.6768 10.0821 44.6925C10.085 44.7035 10.0873 44.7147 10.0906 44.7255C10.0916 44.7285 10.0929 44.7314 10.0938 44.7346C10.134 44.8588 10.2022 44.9704 10.2912 45.0614C10.2928 45.0631 10.2942 45.065 10.2958 45.0665C10.3047 45.0755 10.3143 45.0835 10.3236 45.0919C10.3808 45.1447 10.4454 45.1895 10.5162 45.2245C10.5309 45.2319 10.5454 45.2396 10.5604 45.2459C10.565 45.2479 10.5699 45.2492 10.5745 45.251C10.5953 45.2594 10.6162 45.2674 10.6378 45.2742C10.6398 45.2747 10.6417 45.2751 10.6437 45.2757C10.6682 45.2831 10.693 45.2895 10.7184 45.2948C10.7217 45.2954 10.7251 45.2957 10.7283 45.2963C10.7525 45.3009 10.7767 45.3048 10.8014 45.3072C10.8019 45.3072 10.8024 45.3074 10.8029 45.3075C10.8302 45.3101 10.8572 45.3115 10.884 45.3115C10.8843 45.3115 10.8847 45.3114 10.8852 45.3114H14.5805C14.9885 48.4234 17.6409 50.8337 20.8445 50.8337C24.0478 50.8337 26.7002 48.4234 27.1083 45.3114H40.4227C40.8309 48.4234 43.4831 50.8337 46.6866 50.8337C49.8899 50.8337 52.5425 48.4234 52.9507 45.3114H56.6469C56.6474 45.3114 56.6481 45.3115 56.6487 45.3115C56.6763 45.3115 56.7036 45.3098 56.7306 45.3071C56.7354 45.3067 56.7401 45.3057 56.745 45.3051C56.7665 45.3026 56.788 45.2996 56.809 45.2953C56.8181 45.2935 56.8269 45.2911 56.8358 45.289C56.8521 45.2852 56.8685 45.2812 56.8844 45.2764C56.8953 45.2732 56.9058 45.2694 56.9164 45.2657C56.93 45.261 56.9436 45.2561 56.957 45.2507C56.9685 45.2461 56.9795 45.2411 56.9907 45.2361C57.0028 45.2304 57.015 45.2246 57.0269 45.2185C57.0381 45.2127 57.049 45.2067 57.0598 45.2005C57.0712 45.1938 57.0825 45.1869 57.0937 45.1798C57.1041 45.1731 57.1145 45.1663 57.1245 45.1592C57.1358 45.1513 57.1465 45.1429 57.1574 45.1345C57.1665 45.1272 57.1757 45.1201 57.1846 45.1125C57.196 45.1028 57.2067 45.0927 57.2175 45.0824C57.2251 45.0751 57.2329 45.068 57.2402 45.0604C57.2517 45.0486 57.2627 45.0361 57.2737 45.0236C57.2795 45.0168 57.2856 45.0102 57.2913 45.0033C57.3034 44.9882 57.3145 44.9726 57.3256 44.9569C57.3293 44.9514 57.3335 44.9463 57.3372 44.9407C57.3507 44.9204 57.3634 44.8994 57.3752 44.8778C57.376 44.8765 57.3769 44.8753 57.3775 44.8738C57.39 44.8507 57.4015 44.827 57.4118 44.8025C57.4147 44.7955 57.4169 44.7882 57.4196 44.7812C57.4264 44.764 57.433 44.7467 57.4387 44.7288C57.4423 44.7172 57.445 44.7053 57.4482 44.6936C57.4519 44.6797 57.4557 44.6659 57.4588 44.6517C57.4616 44.6391 57.4634 44.6262 57.4655 44.6134C57.4673 44.6022 57.4698 44.5912 57.4712 44.5797C57.5064 44.296 58.1564 39.0503 58.4467 35.6583C58.4471 35.655 58.4472 35.6517 58.4475 35.6485C58.5311 34.6707 58.5846 33.8473 58.5846 33.3432C58.5846 27.358 53.7438 22.4885 47.7936 22.4885ZM44.0813 24.1587H47.4773L47.0435 29.1681H43.6476L44.0813 24.1587ZM20.8447 49.1636C18.2751 49.1636 16.1846 47.0608 16.1846 44.4762C16.1846 41.8915 18.2752 39.7887 20.8447 39.7887C23.4142 39.7887 25.5047 41.8915 25.5047 44.4762C25.5047 47.0608 23.4142 49.1636 20.8447 49.1636ZM46.6866 49.1636C44.1171 49.1636 42.0267 47.0608 42.0267 44.4762C42.0267 41.8915 44.1172 39.7887 46.6866 39.7887C49.2562 39.7887 51.3467 41.8915 51.3467 44.4762C51.3467 47.0608 49.2562 49.1636 46.6866 49.1636ZM55.9134 43.6409H52.9509C52.543 40.5286 49.8905 38.1182 46.6868 38.1182C43.4834 38.1182 40.8309 40.5287 40.4229 43.6409H27.1086C26.7007 40.5286 24.0483 38.1182 20.8447 38.1182C17.6411 38.1182 14.9885 40.5287 14.5806 43.6409H11.7977L12.4949 36.404H42.2599V36.4044C42.2604 36.4044 42.2607 36.4044 42.2611 36.4044C42.2889 36.4044 42.3165 36.4029 42.3437 36.4001C42.3488 36.3996 42.3538 36.3985 42.3589 36.3978C42.3806 36.3953 42.4021 36.3922 42.4234 36.3879C42.4326 36.386 42.4415 36.3835 42.4506 36.3813C42.4672 36.3772 42.4838 36.3734 42.5 36.3685C42.5111 36.3651 42.5216 36.3611 42.5323 36.3573C42.5462 36.3524 42.5602 36.3476 42.5737 36.3421C42.5853 36.3373 42.5965 36.3319 42.6078 36.3266C42.6201 36.3209 42.6324 36.3152 42.6442 36.309C42.6555 36.303 42.6666 36.2965 42.6777 36.2901C42.6891 36.2834 42.7004 36.2766 42.7115 36.2695C42.7222 36.2625 42.7324 36.2551 42.7427 36.2478C42.7537 36.24 42.7643 36.232 42.7749 36.2236C42.7844 36.2159 42.7938 36.208 42.8031 36.1999C42.8136 36.1908 42.8239 36.1814 42.8339 36.1717C42.8423 36.1636 42.8507 36.1553 42.8589 36.1467C42.8689 36.1362 42.8785 36.1254 42.888 36.1144C42.8954 36.1057 42.9027 36.097 42.9098 36.0881C42.919 36.0764 42.9278 36.0644 42.9364 36.0523C42.9429 36.0431 42.9492 36.034 42.9554 36.0247C42.9635 36.0121 42.9712 35.9992 42.9787 35.986C42.9843 35.9762 42.9901 35.9664 42.9952 35.9564C43.0021 35.9433 43.0081 35.9299 43.0144 35.9165C43.0193 35.9057 43.0243 35.8951 43.0287 35.8839C43.0341 35.8708 43.0387 35.8573 43.0434 35.8439C43.0475 35.832 43.0518 35.82 43.0555 35.8078C43.0591 35.7949 43.0621 35.7816 43.0654 35.7685C43.0686 35.7552 43.0722 35.7421 43.0747 35.7286C43.0773 35.7155 43.0788 35.7021 43.0808 35.6888C43.0828 35.675 43.0851 35.6614 43.0865 35.6474C43.0867 35.6454 43.0871 35.6435 43.0872 35.6415L43.5033 30.8376H47.7934C50.3366 30.8376 51.4837 32.1631 52.6979 33.5665C53.6999 34.7244 54.8185 36.0164 56.7199 36.3316C56.4784 38.9 56.0881 42.1971 55.9134 43.6409ZM56.8618 34.6583C55.6283 34.4054 54.8694 33.5331 53.95 32.4706C52.8002 31.1418 51.3965 29.5203 48.7056 29.2182L49.135 24.2587C53.536 24.9134 56.9245 28.7373 56.9245 33.3434C56.9245 33.6563 56.9012 34.111 56.8618 34.6583Z" fill="#1F1F1F" stroke="#1F1F1F" stroke-width="0.3"/>
<path d="M18.3008 44.4756C18.3008 43.0608 19.4451 41.9141 20.8444 41.9141C22.2437 41.9141 23.3881 43.0609 23.3881 44.4756C23.3881 45.8905 22.2437 47.0372 20.8444 47.0372C19.4451 47.0372 18.3008 45.8905 18.3008 44.4756ZM18.9609 44.4756C18.9609 45.5164 19.8026 46.3673 20.8444 46.3673C21.8861 46.3673 22.7279 45.5164 22.7279 44.4756C22.7279 43.4349 21.8862 42.584 20.8444 42.584C19.8026 42.584 18.9609 43.4349 18.9609 44.4756Z" fill="#1F1F1F" stroke="#1F1F1F"/>
<path d="M44.1406 44.4756C44.1406 43.0608 45.2849 41.9141 46.6843 41.9141C48.0835 41.9141 49.2279 43.0609 49.2279 44.4756C49.2279 45.8905 48.0836 47.0372 46.6843 47.0372C45.2849 47.0372 44.1406 45.8905 44.1406 44.4756ZM44.8008 44.4756C44.8008 45.5164 45.6424 46.3673 46.6843 46.3673C47.7261 46.3673 48.5677 45.5164 48.5677 44.4756C48.5677 43.4349 47.7261 42.584 46.6843 42.584C45.6424 42.584 44.8008 43.4349 44.8008 44.4756Z" fill="#1F1F1F" stroke="#1F1F1F"/>
<path d="M9.7749 22.4883H5.7168C5.25826 22.4883 4.88672 22.8621 4.88672 23.3233C4.88672 23.7844 5.25826 24.1582 5.7168 24.1582H9.7749C10.2334 24.1582 10.605 23.7844 10.605 23.3233C10.605 22.8621 10.2334 22.4883 9.7749 22.4883Z" fill="#1F1F1F" stroke="#1F1F1F" stroke-width="0.3"/>
</svg>
