<svg width="61" height="60" viewBox="0 0 61 60" fill="none" xmlns="http://www.w3.org/2000/svg">
<path d="M58.3977 33.2205C58.0811 32.0736 57.783 30.9895 57.783 30.0003C57.783 29.0111 58.0811 27.9271 58.3977 26.7802C58.9015 24.9545 59.4213 23.066 58.7992 21.2305C58.1538 19.3211 56.5451 18.0732 54.9893 16.8684C54.0569 16.1453 53.1761 15.4629 52.6046 14.7114C52.0232 13.9452 51.6118 12.9227 51.1782 11.8399C50.4625 10.0611 49.7234 8.22061 48.0679 7.06511C46.4395 5.92685 44.407 5.81721 42.4448 5.7125C41.2204 5.64721 40.0625 5.58438 39.0931 5.28257C38.1865 5.00047 37.2479 4.41533 36.2551 3.79569C34.6575 2.79786 32.8455 1.66699 30.7502 1.66699C28.655 1.66699 26.843 2.79786 25.2454 3.79692C24.2525 4.41656 23.3164 5.00293 22.4086 5.2838C21.4379 5.58562 20.28 5.64844 19.0556 5.71373C17.0922 5.81967 15.0622 5.92808 13.4325 7.06634C11.777 8.22185 11.0379 10.0611 10.3223 11.8399C9.88622 12.9227 9.4748 13.9464 8.8934 14.7126C8.32185 15.4666 7.44112 16.149 6.50866 16.8734C4.95414 18.0794 3.34789 19.3248 2.70244 21.2318C2.08038 23.0685 2.6002 24.9558 3.10277 26.7826C3.41934 27.9295 3.71743 29.0124 3.71743 30.0016C3.71743 30.9908 3.41934 32.0748 3.10277 33.2217C2.6002 35.0474 2.08038 36.9358 2.70244 38.7738C3.34789 40.6808 4.95537 41.9287 6.50989 43.1334C7.44235 43.8553 8.32308 44.539 8.8934 45.2905C9.47603 46.0567 9.88745 47.0792 10.3223 48.1632C11.0379 49.9421 11.7782 51.7825 13.435 52.9405C15.0622 54.0763 17.0934 54.1847 19.0556 54.2894C20.28 54.3547 21.4379 54.4175 22.4073 54.7193C23.3139 55.0014 24.2513 55.5866 25.2429 56.205C26.8418 57.2016 28.6537 58.3337 30.7502 58.3337C32.8467 58.3337 34.6599 57.2016 36.26 56.2037C37.2516 55.5853 38.1878 55.0002 39.0956 54.7181C40.065 54.4163 41.2229 54.3534 42.4473 54.2881C44.4107 54.1834 46.4407 54.075 48.0679 52.9392C49.7271 51.7813 50.4662 49.9384 51.1819 48.1583C51.6167 47.0767 52.0269 46.0542 52.6058 45.2905C53.1774 44.539 54.0581 43.8553 54.9906 43.1334C56.5463 41.9274 58.1538 40.6808 58.8005 38.7726C59.4225 36.9346 58.9015 35.0474 58.3977 33.2205ZM56.4661 37.9829C56.0584 39.1877 54.8056 40.1584 53.4802 41.1858C52.464 41.9742 51.4121 42.7897 50.6434 43.7999C49.8637 44.8297 49.371 46.0542 48.8943 47.2405C48.287 48.7533 47.713 50.181 46.6574 50.9177C45.6054 51.6519 44.0078 51.7369 42.3153 51.8268C40.9936 51.8971 39.6251 51.9697 38.3613 52.3639C37.1529 52.7421 36.0344 53.4381 34.9542 54.1132C33.5068 55.0174 32.1408 55.8699 30.7501 55.8699C29.3594 55.8699 27.9946 55.0174 26.5472 54.1132C25.4682 53.4394 24.3509 52.7421 23.1413 52.3639C21.8775 51.971 20.509 51.8971 19.1873 51.8268C17.4948 51.7369 15.896 51.6507 14.8452 50.9177C13.7908 50.181 13.2156 48.7533 12.6083 47.2418C12.1316 46.0555 11.6377 44.8297 10.8567 43.7999C10.0893 42.7897 9.03736 41.9742 8.01991 41.1846C6.69574 40.1572 5.44424 39.1877 5.03652 37.9829C4.6559 36.8607 5.05623 35.4095 5.47873 33.8746C5.82363 32.6193 6.18085 31.3234 6.18085 29.9991C6.18085 28.6748 5.82363 27.3801 5.47873 26.1248C5.055 24.5899 4.6559 23.14 5.03652 22.0177C5.44424 20.8129 6.6945 19.8434 8.01867 18.816C9.03613 18.0264 10.0893 17.2097 10.8555 16.1983C11.6389 15.1684 12.1316 13.9415 12.6095 12.7552C13.2156 11.2437 13.7896 9.81714 14.8428 9.08293C15.8947 8.3475 17.4948 8.2625 19.1885 8.17257C20.509 8.10112 21.8775 8.02844 23.1401 7.63424C24.3509 7.25728 25.4694 6.5588 26.5509 5.88373C27.9958 4.98322 29.3606 4.13076 30.7501 4.13076C32.1395 4.13076 33.5056 4.98322 34.9517 5.88619C36.0332 6.5625 37.1504 7.25975 38.3613 7.6367C39.6239 8.02967 40.9911 8.10235 42.3129 8.1738C44.0066 8.26373 45.6054 8.35119 46.6574 9.0854C47.7118 9.82206 48.2858 11.2486 48.8918 12.7576C49.3698 13.9452 49.8612 15.1709 50.6447 16.2008C51.4121 17.2109 52.464 18.0264 53.4802 18.8148C54.8056 19.8434 56.0584 20.8142 56.4661 22.0214C56.8467 23.1412 56.4451 24.5911 56.0226 26.126C55.6765 27.3813 55.3193 28.6773 55.3193 30.0016C55.3193 31.3258 55.6753 32.6218 56.0226 33.8758C56.4465 35.4108 56.8467 36.8607 56.4661 37.9829Z" fill="#1F1F1F"/>
<path d="M30.7502 11.5215C20.5621 11.5215 12.2734 19.8108 12.2734 29.9997C12.2734 40.1887 20.5621 48.478 30.7502 48.478C40.9384 48.478 49.227 40.1887 49.227 29.9997C49.227 19.8108 40.9384 11.5215 30.7502 11.5215ZM30.7502 46.0142C21.9208 46.0142 14.737 38.8299 14.737 29.9997C14.737 21.1696 21.9208 13.9853 30.7502 13.9853C35.3042 13.9853 39.4097 15.9058 42.329 18.9682L30.5901 35.489L24.2304 29.1288C23.7488 28.6471 22.9703 28.6471 22.4886 29.1288C22.007 29.6105 22.007 30.389 22.4886 30.8707L29.8794 38.262C30.1109 38.4948 30.425 38.6229 30.7502 38.6229C30.7835 38.6229 30.8192 38.6217 30.8537 38.618C31.2146 38.5884 31.5447 38.4 31.7541 38.1043L43.9451 20.9466C45.7189 23.5237 46.7635 26.6404 46.7635 29.9997C46.7635 38.8299 39.5797 46.0142 30.7502 46.0142Z" fill="#1F1F1F"/>
</svg>
