<svg width="126" height="29" viewBox="0 0 126 29" fill="none" xmlns="http://www.w3.org/2000/svg">
<path d="M0.265781 22L8.21578 0.399999H11.5758L4.10578 22H0.265781ZM16.5558 22L9.11578 0.399999H12.6558L20.5758 22H16.5558ZM4.37578 13.51H16.1958V16.63H4.37578V13.51ZM23.4377 22V6.7H27.1277V10.3H27.2177V22H23.4377ZM34.1777 22V12.34C34.1777 11.4 33.9377 10.69 33.4577 10.21C32.9777 9.73 32.2777 9.49 31.3577 9.49C30.5577 9.49 29.8377 9.67 29.1977 10.03C28.5777 10.39 28.0877 10.89 27.7277 11.53C27.3877 12.17 27.2177 12.91 27.2177 13.75L26.8277 10.09C27.3477 8.97 28.1077 8.08 29.1077 7.42C30.1077 6.74 31.3077 6.4 32.7077 6.4C34.3677 6.4 35.6577 6.87 36.5777 7.81C37.5177 8.75 37.9877 10 37.9877 11.56V22H34.1777ZM45.4223 22L39.3023 6.7H43.3823L48.2723 20.77H46.2623L51.1523 6.7H55.1123L48.9623 22H45.4223ZM63.7669 22.3C62.1469 22.3 60.7169 21.96 59.4769 21.28C58.2569 20.6 57.3069 19.66 56.6269 18.46C55.9469 17.24 55.6069 15.85 55.6069 14.29C55.6069 12.73 55.9469 11.36 56.6269 10.18C57.3069 9 58.2569 8.08 59.4769 7.42C60.7169 6.74 62.1469 6.4 63.7669 6.4C65.4069 6.4 66.8369 6.74 68.0569 7.42C69.2769 8.08 70.2269 9 70.9069 10.18C71.5869 11.36 71.9269 12.73 71.9269 14.29C71.9269 15.85 71.5769 17.24 70.8769 18.46C70.1969 19.66 69.2469 20.6 68.0269 21.28C66.8069 21.96 65.3869 22.3 63.7669 22.3ZM63.7669 19.27C64.5669 19.27 65.2869 19.07 65.9269 18.67C66.5669 18.25 67.0669 17.67 67.4269 16.93C67.7869 16.17 67.9669 15.28 67.9669 14.26C67.9669 12.76 67.5669 11.58 66.7669 10.72C65.9869 9.86 64.9869 9.43 63.7669 9.43C62.5469 9.43 61.5369 9.86 60.7369 10.72C59.9369 11.58 59.5369 12.76 59.5369 14.26C59.5369 15.28 59.7169 16.17 60.0769 16.93C60.4569 17.67 60.9569 18.25 61.5769 18.67C62.2169 19.07 62.9469 19.27 63.7669 19.27ZM81.5152 28.45C79.4952 28.45 77.8352 28.01 76.5352 27.13C75.2552 26.25 74.4952 25.06 74.2552 23.56H77.8552C78.0352 24.08 78.4252 24.48 79.0252 24.76C79.6452 25.06 80.4452 25.21 81.4252 25.21C82.8452 25.21 83.8952 24.89 84.5752 24.25C85.2552 23.63 85.5952 22.68 85.5952 21.4V18.1L85.8652 18.16C85.6252 19.28 85.0152 20.18 84.0352 20.86C83.0552 21.52 81.8552 21.85 80.4352 21.85C79.0752 21.85 77.8852 21.53 76.8652 20.89C75.8652 20.25 75.0852 19.36 74.5252 18.22C73.9652 17.06 73.6852 15.71 73.6852 14.17C73.6852 12.61 73.9752 11.25 74.5552 10.09C75.1352 8.93 75.9452 8.03 76.9852 7.39C78.0452 6.73 79.2752 6.4 80.6752 6.4C82.1152 6.4 83.2952 6.75 84.2152 7.45C85.1552 8.13 85.7352 9.08 85.9552 10.3L85.7152 10.33V6.7H89.4052V21.37C89.4052 23.55 88.6952 25.27 87.2752 26.53C85.8752 27.81 83.9552 28.45 81.5152 28.45ZM81.6652 18.85C82.8852 18.85 83.8552 18.44 84.5752 17.62C85.3152 16.78 85.6852 15.61 85.6852 14.11C85.6852 12.61 85.3152 11.45 84.5752 10.63C83.8352 9.81 82.8552 9.4 81.6352 9.4C80.4352 9.4 79.4652 9.82 78.7252 10.66C77.9852 11.48 77.6152 12.64 77.6152 14.14C77.6152 15.64 77.9852 16.8 78.7252 17.62C79.4652 18.44 80.4452 18.85 81.6652 18.85ZM98.378 22.3C97.318 22.3 96.398 22.08 95.618 21.64C94.858 21.18 94.268 20.56 93.848 19.78C93.448 19 93.248 18.12 93.248 17.14V6.7H97.028V16.36C97.028 17.3 97.258 18.01 97.718 18.49C98.198 18.97 98.868 19.21 99.728 19.21C100.508 19.21 101.188 19.03 101.768 18.67C102.368 18.31 102.838 17.81 103.178 17.17C103.538 16.51 103.718 15.77 103.718 14.95L104.108 18.61C103.608 19.73 102.858 20.63 101.858 21.31C100.878 21.97 99.718 22.3 98.378 22.3ZM103.838 22V18.4H103.718V6.7H107.528V22H103.838ZM118.316 22.3C116.696 22.3 115.276 21.96 114.056 21.28C112.856 20.6 111.916 19.66 111.236 18.46C110.576 17.26 110.246 15.88 110.246 14.32C110.246 12.76 110.576 11.39 111.236 10.21C111.916 9.01 112.856 8.08 114.056 7.42C115.256 6.74 116.656 6.4 118.256 6.4C119.776 6.4 121.096 6.72 122.216 7.36C123.336 7.98 124.206 8.86 124.826 10C125.446 11.14 125.756 12.47 125.756 13.99C125.756 14.27 125.746 14.53 125.726 14.77C125.706 15.01 125.676 15.25 125.636 15.49H112.586V12.85H122.726L121.946 13.57C121.946 12.13 121.616 11.05 120.956 10.33C120.296 9.61 119.376 9.25 118.196 9.25C116.916 9.25 115.896 9.69 115.136 10.57C114.396 11.45 114.026 12.72 114.026 14.38C114.026 16.02 114.396 17.28 115.136 18.16C115.896 19.02 116.966 19.45 118.346 19.45C119.146 19.45 119.846 19.3 120.446 19C121.046 18.7 121.486 18.24 121.766 17.62H125.336C124.836 19.06 123.986 20.2 122.786 21.04C121.606 21.88 120.116 22.3 118.316 22.3Z" fill="#1F1F1F"/>
</svg>
