<svg width="61" height="60" viewBox="0 0 61 60" fill="none" xmlns="http://www.w3.org/2000/svg">
<path d="M55.1905 5H36.7588C36.3441 5 36.0081 5.33365 36.0081 5.74543C36.0081 6.15721 36.3441 6.49086 36.7588 6.49086H55.1905C56.3247 6.49086 57.2475 7.40714 57.2475 8.53334V27.7288C57.2475 28.855 56.3247 29.7713 55.1905 29.7713H52.2465C52.0883 29.7713 51.9342 29.8209 51.8061 29.913L46.6869 33.5945V30.5167C46.6869 30.1049 46.3508 29.7713 45.9361 29.7713H29.6406C28.5063 29.7713 27.5835 28.855 27.5835 27.7288V8.53334C27.5835 7.40714 28.5064 6.49086 29.6406 6.49086H33.4875C33.9022 6.49086 34.2383 6.15721 34.2383 5.74543C34.2383 5.33365 33.9022 5 33.4875 5H29.6406C27.6783 5 26.082 6.58498 26.082 8.53334V27.7288C26.082 29.6771 27.6784 31.2621 29.6406 31.2621H45.1853V35.0549C45.1853 35.335 45.3435 35.5914 45.5948 35.7188C45.861 35.8448 46.1216 35.8248 46.3766 35.6587L52.4898 31.2622H55.1905C57.1528 31.2622 58.7491 29.6772 58.7491 27.7289V8.53334C58.7491 6.58508 57.1527 5 55.1905 5Z" fill="#1F1F1F" stroke="#1F1F1F" stroke-width="0.4"/>
<path d="M50.3913 45.6876C50.2202 44.4651 49.5007 43.4257 48.415 42.8341L44.7672 40.8467C44.3695 40.6296 43.8713 40.7766 43.6545 41.1747C43.438 41.5725 43.5847 42.0707 43.9826 42.2874L47.6299 44.2746C48.254 44.6146 48.6675 45.2115 48.7664 45.9136C48.7669 45.918 48.7675 45.9225 48.7681 45.9269C48.8638 46.6361 48.6225 47.3278 48.1062 47.8242L47.5686 48.3404L34.1022 40.7631L35.6848 39.371C36.3599 38.777 37.3427 38.6673 38.1312 39.098L40.4072 40.3384C40.805 40.5551 41.3032 40.4085 41.52 40.0106C41.7367 39.6128 41.5901 39.1146 41.1922 38.8978L38.9168 37.6577C37.5263 36.8985 35.7917 37.0917 34.6014 38.1391L30.9133 41.3831C30.1578 42.0475 29.0553 42.1092 28.2323 41.5327C22.6771 37.641 18.643 33.3596 15.8993 28.4443C15.4367 27.6144 15.5659 26.5909 16.2207 25.8976L19.1401 22.81C20.2286 21.6574 20.4838 19.9308 19.7751 18.5134L14.8623 8.68794C14.3151 7.59194 13.3099 6.83695 12.1048 6.61646C10.8989 6.39553 9.69087 6.74628 8.79009 7.57805L6.92423 9.30184C4.86171 11.2071 3.49677 13.671 2.97704 16.4269C2.45632 19.1874 2.83529 21.9721 4.07282 24.4809C4.07829 24.4924 4.08343 24.5025 4.0877 24.5108C4.87189 26.0967 5.71984 27.6475 6.60639 29.1175C6.75437 29.3649 6.91395 29.6263 7.08041 29.8946C7.31938 30.2794 7.825 30.3977 8.20999 30.1588C8.59486 29.9199 8.7132 29.4141 8.47434 29.0292C8.31258 28.7686 8.15771 28.5149 8.01279 28.2727C7.1492 26.8407 6.32433 25.3323 5.56103 23.7892C5.55676 23.7802 5.55239 23.7715 5.54791 23.7627C3.39155 19.3996 4.355 14.046 7.87859 10.6598L15.2761 24.509L15.0284 24.771C13.879 25.9876 13.6531 27.785 14.4665 29.2437C17.3337 34.3803 21.5285 38.8396 27.291 42.8766C27.9525 43.3397 28.7164 43.5683 29.4778 43.5683C30.3798 43.5683 31.2779 43.2472 31.9968 42.6149L32.7971 41.911L46.3326 49.5272L46.3189 49.5403C42.83 52.8923 37.6035 53.6551 33.3137 51.4384C24.0155 46.6322 16.4566 40.2789 10.8471 32.5554C10.5808 32.1887 10.0679 32.1073 9.70137 32.3737C9.33476 32.64 9.25349 33.1528 9.5197 33.5195C15.2809 41.4519 23.0329 47.9712 32.5603 52.8961C34.4357 53.8651 36.4664 54.3372 38.4839 54.3372C41.7524 54.3372 44.9848 53.0972 47.4551 50.7238L49.2427 49.0073C50.1343 48.15 50.5543 46.9584 50.3973 45.7341C50.3958 45.7184 50.3937 45.7031 50.3913 45.6876ZM9.1217 9.50516L9.90326 8.7832C10.4212 8.30493 11.1157 8.10358 11.8095 8.23023C12.5022 8.35699 13.08 8.79097 13.3948 9.42138L18.3077 19.2472C18.7096 20.0509 18.5648 21.03 17.9477 21.6833L16.4645 23.252L9.1217 9.50516Z" fill="#1F1F1F" stroke="#1F1F1F" stroke-width="0.4"/>
<path d="M52.6057 18.4904C52.6057 16.9104 51.3203 15.625 49.7403 15.625C48.1604 15.625 46.875 16.9104 46.875 18.4904C46.875 20.0703 48.1604 21.3557 49.7403 21.3557C51.3203 21.3557 52.6057 20.0703 52.6057 18.4904ZM48.5155 18.4904C48.5155 17.815 49.0648 17.2656 49.7402 17.2656C50.4155 17.2656 50.965 17.815 50.965 18.4904C50.965 19.1658 50.4155 19.7151 49.7402 19.7151C49.0648 19.7151 48.5155 19.1658 48.5155 18.4904Z" fill="#1F1F1F"/>
<path d="M45.0119 18.4904C45.0119 16.9104 43.7265 15.625 42.1466 15.625C40.5667 15.625 39.2812 16.9104 39.2812 18.4904C39.2812 20.0703 40.5667 21.3557 42.1466 21.3557C43.7265 21.3557 45.0119 20.0703 45.0119 18.4904ZM40.9217 18.4904C40.9217 17.815 41.4712 17.2656 42.1465 17.2656C42.8219 17.2656 43.3713 17.815 43.3713 18.4904C43.3713 19.1658 42.8219 19.7151 42.1465 19.7151C41.4712 19.7151 40.9217 19.1658 40.9217 18.4904Z" fill="#1F1F1F"/>
<path d="M31.6836 18.4904C31.6836 20.0703 32.9689 21.3557 34.549 21.3557C36.1291 21.3557 37.4144 20.0703 37.4144 18.4904C37.4144 16.9104 36.129 15.625 34.549 15.625C32.969 15.625 31.6836 16.9104 31.6836 18.4904ZM34.549 17.2656C35.2244 17.2656 35.7738 17.815 35.7738 18.4904C35.7738 19.1658 35.2244 19.7151 34.549 19.7151C33.8736 19.7151 33.3243 19.1658 33.3243 18.4904C33.3243 17.815 33.8736 17.2656 34.549 17.2656Z" fill="#1F1F1F"/>
</svg>
