<svg width="61" height="60" viewBox="0 0 61 60" fill="none" xmlns="http://www.w3.org/2000/svg">
<path d="M40.2487 47.7771H6.5287C4.90425 47.7771 3.58203 46.4549 3.58203 44.8305V17.7771C3.58203 17.1638 4.07981 16.666 4.69314 16.666H46.9154C47.5287 16.666 48.0265 17.1638 48.0265 17.7771V26.666C48.0265 27.2793 47.5287 27.7771 46.9154 27.7771C46.302 27.7771 45.8043 27.2793 45.8043 26.666V18.8882H5.80425V44.8305C5.80425 45.2305 6.1287 45.5549 6.5287 45.5549H40.2487C40.862 45.5549 41.3598 46.0527 41.3598 46.666C41.3598 47.2794 40.862 47.7771 40.2487 47.7771Z" fill="#1F1F1F"/>
<path d="M46.9154 18.8886C46.5242 18.8886 46.1442 18.6819 45.942 18.313L39.2309 6.13079C39.0376 5.77523 38.6642 5.55523 38.2576 5.55523H13.3509C12.9442 5.55523 12.5709 5.77523 12.3776 6.13079L5.66646 18.313C5.37091 18.853 4.69091 19.0419 4.15757 18.7508C3.61979 18.4552 3.42424 17.7775 3.71979 17.2419L10.4309 5.05967C11.0154 3.99301 12.1354 3.33301 13.3509 3.33301H38.2598C39.4753 3.33301 40.5954 3.99301 41.1798 5.05745L47.8887 17.2397C48.1865 17.7775 47.9909 18.453 47.4531 18.7486C47.282 18.8441 47.0976 18.8886 46.9154 18.8886Z" fill="#1F1F1F"/>
<path d="M25.8064 18.8886C25.1931 18.8886 24.6953 18.3908 24.6953 17.7775V4.44412C24.6953 3.83079 25.1931 3.33301 25.8064 3.33301C26.4198 3.33301 26.9175 3.83079 26.9175 4.44412V17.7775C26.9175 18.3908 26.4198 18.8886 25.8064 18.8886Z" fill="#1F1F1F"/>
<path d="M55.803 56.666C55.1896 56.666 54.6918 56.1682 54.6918 55.5549V51.1105C54.6918 44.3705 49.2074 38.8882 42.4696 38.8882H38.0252C37.4118 38.8882 36.9141 38.3905 36.9141 37.7771C36.9141 37.1638 37.4118 36.666 38.0252 36.666H42.4696C50.4341 36.666 56.9141 43.146 56.9141 51.1105V55.5549C56.9141 56.1682 56.4163 56.666 55.803 56.666Z" fill="#1F1F1F"/>
<path d="M45.8029 45.555C45.5474 45.555 45.2896 45.4661 45.0807 45.2861L37.303 38.6194C37.0541 38.4105 36.9141 38.1017 36.9141 37.7772C36.9141 37.4528 37.0541 37.1439 37.303 36.935L45.0807 30.2683C45.5452 29.8705 46.2429 29.9216 46.6474 30.3883C47.0474 30.8528 46.9918 31.555 46.5252 31.955L39.7341 37.7772L46.5274 43.6017C46.9941 44.0017 47.0474 44.7017 46.6496 45.1683C46.4252 45.4239 46.1163 45.555 45.8029 45.555Z" fill="#1F1F1F"/>
</svg>
